<svg width="448" height="156" viewBox="0 0 448 156" fill="none" xmlns="http://www.w3.org/2000/svg">
<rect width="448" height="156" fill="white"/>
<path d="M192.52 85C192.453 85 192.42 84.9667 192.42 84.9V82.64C192.42 82.6133 192.433 82.5867 192.46 82.56L197.4 75.78C197.493 75.66 197.567 75.5067 197.62 75.32C197.687 75.12 197.72 74.9467 197.72 74.8C197.72 74.4133 197.58 74.06 197.3 73.74C197.02 73.4067 196.667 73.24 196.24 73.24C195.827 73.24 195.473 73.4 195.18 73.72C194.9 74.0267 194.76 74.42 194.76 74.9V75.88C194.76 75.9467 194.727 75.98 194.66 75.98H192.42C192.367 75.98 192.34 75.9467 192.34 75.88V74.9C192.34 74.1533 192.52 73.4733 192.88 72.86C193.253 72.2467 193.733 71.76 194.32 71.4C194.92 71.04 195.56 70.86 196.24 70.86C196.96 70.86 197.613 71.0467 198.2 71.42C198.787 71.78 199.253 72.26 199.6 72.86C199.96 73.46 200.14 74.1067 200.14 74.8C200.14 75.24 200.06 75.6867 199.9 76.14C199.753 76.5933 199.547 76.9933 199.28 77.34L195.48 82.56H199.98C200.033 82.56 200.06 82.5867 200.06 82.64V84.9C200.06 84.9667 200.033 85 199.98 85H192.52ZM205.689 85.2C204.836 85.2 204.082 85.02 203.429 84.66C202.776 84.2867 202.262 83.8 201.889 83.2C201.529 82.5867 201.349 81.9133 201.349 81.18L201.369 74.84C201.369 74.1067 201.549 73.44 201.909 72.84C202.282 72.24 202.796 71.76 203.449 71.4C204.102 71.04 204.849 70.86 205.689 70.86C206.542 70.86 207.289 71.04 207.929 71.4C208.569 71.76 209.069 72.24 209.429 72.84C209.802 73.44 209.989 74.1067 209.989 74.84L210.009 81.18C210.009 81.9133 209.822 82.5867 209.449 83.2C209.089 83.8 208.582 84.2867 207.929 84.66C207.289 85.02 206.542 85.2 205.689 85.2ZM207.589 81.18L207.569 74.84C207.569 74.3733 207.396 73.9933 207.049 73.7C206.702 73.4067 206.249 73.26 205.689 73.26C205.116 73.26 204.656 73.4067 204.309 73.7C203.962 73.9933 203.789 74.3733 203.789 74.84V81.18C203.789 81.6733 203.962 82.0667 204.309 82.36C204.656 82.64 205.116 82.78 205.689 82.78C206.249 82.78 206.702 82.64 207.049 82.36C207.409 82.0667 207.589 81.6733 207.589 81.18ZM211.309 85C211.242 85 211.209 84.9667 211.209 84.9V82.64C211.209 82.6133 211.222 82.5867 211.249 82.56L216.189 75.78C216.282 75.66 216.356 75.5067 216.409 75.32C216.476 75.12 216.509 74.9467 216.509 74.8C216.509 74.4133 216.369 74.06 216.089 73.74C215.809 73.4067 215.456 73.24 215.029 73.24C214.616 73.24 214.262 73.4 213.969 73.72C213.689 74.0267 213.549 74.42 213.549 74.9V75.88C213.549 75.9467 213.516 75.98 213.449 75.98H211.209C211.156 75.98 211.129 75.9467 211.129 75.88V74.9C211.129 74.1533 211.309 73.4733 211.669 72.86C212.042 72.2467 212.522 71.76 213.109 71.4C213.709 71.04 214.349 70.86 215.029 70.86C215.749 70.86 216.402 71.0467 216.989 71.42C217.576 71.78 218.042 72.26 218.389 72.86C218.749 73.46 218.929 74.1067 218.929 74.8C218.929 75.24 218.849 75.6867 218.689 76.14C218.542 76.5933 218.336 76.9933 218.069 77.34L214.269 82.56H218.769C218.822 82.56 218.849 82.5867 218.849 82.64V84.9C218.849 84.9667 218.822 85 218.769 85H211.309ZM223.818 85.22C223.111 85.22 222.458 85.04 221.858 84.68C221.271 84.3067 220.798 83.8133 220.438 83.2C220.091 82.5867 219.918 81.9133 219.918 81.18V80.28C219.918 80.2133 219.945 80.18 219.998 80.18H222.238C222.305 80.18 222.338 80.2133 222.338 80.28V81.18C222.338 81.62 222.478 82 222.758 82.32C223.038 82.6267 223.391 82.78 223.818 82.78C224.285 82.78 224.651 82.62 224.918 82.3C225.185 81.9667 225.318 81.5933 225.318 81.18V80.64C225.318 80.2267 225.185 79.8533 224.918 79.52C224.665 79.1867 224.338 79.02 223.938 79.02H223.158C223.091 79.02 223.058 78.9867 223.058 78.92L223.078 76.68C223.078 76.6267 223.105 76.6 223.158 76.6H223.938C224.298 76.6 224.618 76.46 224.898 76.18C225.178 75.9 225.318 75.5333 225.318 75.08V74.8C225.318 74.3733 225.171 74.0133 224.878 73.72C224.598 73.4133 224.245 73.26 223.818 73.26C223.405 73.26 223.051 73.4133 222.758 73.72C222.478 74.0133 222.338 74.3733 222.338 74.8V75.76C222.338 75.8267 222.311 75.86 222.258 75.86H220.018C219.965 75.86 219.938 75.8267 219.938 75.76V74.7C219.938 73.9667 220.118 73.3133 220.478 72.74C220.851 72.1667 221.331 71.7133 221.918 71.38C222.518 71.0333 223.151 70.86 223.818 70.86C224.538 70.86 225.191 71.04 225.778 71.4C226.378 71.7467 226.851 72.2133 227.198 72.8C227.545 73.3867 227.718 74.0333 227.718 74.74V75.06C227.718 75.6467 227.618 76.1533 227.418 76.58C227.231 77.0067 226.965 77.4133 226.618 77.8C226.965 78.2 227.238 78.64 227.438 79.12C227.638 79.5867 227.738 80.0733 227.738 80.58V81.18C227.738 81.9267 227.558 82.6067 227.198 83.22C226.851 83.8333 226.378 84.32 225.778 84.68C225.191 85.04 224.538 85.22 223.818 85.22Z" fill="#E50000"/>
<path d="M193.816 134C193.645 134 193.56 133.893 193.56 133.68L193.624 89.712C193.624 89.5413 193.731 89.456 193.944 89.456H201.048C201.261 89.456 201.368 89.5413 201.368 89.712L201.304 107.12H210.904V89.712C210.904 89.5413 210.989 89.456 211.16 89.456H218.264C218.477 89.456 218.584 89.5413 218.584 89.712L218.712 133.68C218.712 133.893 218.605 134 218.392 134H211.224C211.011 134 210.904 133.893 210.904 133.68V114.864H201.304V133.68C201.304 133.893 201.219 134 201.048 134H193.816ZM221.759 133.68L229.695 89.712C229.738 89.5413 229.844 89.456 230.015 89.456H239.295C239.466 89.456 239.572 89.5413 239.615 89.712L247.231 133.68C247.274 133.893 247.188 134 246.975 134H239.871C239.7 134 239.594 133.893 239.551 133.68L238.847 129.008H230.143L229.439 133.68C229.396 133.893 229.29 134 229.119 134H222.015C221.844 134 221.759 133.893 221.759 133.68ZM231.423 122.16H237.567L234.943 104.176L234.559 101.808L234.303 104.176L231.423 122.16Z" fill="black"/>
<rect x="31" y="48" width="130" height="34" fill="#E50000"/>
<rect x="311" y="110" width="136" height="34" fill="#E50000"/>
<path d="M75.816 76C75.6453 76 75.56 75.8933 75.56 75.68L75.624 31.776C75.624 31.5627 75.7307 31.456 75.944 31.456H83.048C83.2613 31.456 83.368 31.5627 83.368 31.776L83.304 68.128H96.488C96.7013 68.128 96.808 68.2347 96.808 68.448V75.68C96.808 75.8933 96.7013 76 96.488 76H75.816ZM101.254 76C101.083 76 100.998 75.8933 100.998 75.68L101.062 31.712C101.062 31.5413 101.147 31.456 101.318 31.456H121.862C122.032 31.456 122.118 31.5627 122.118 31.776V38.944C122.118 39.1147 122.032 39.2 121.862 39.2H108.742V49.184H121.862C122.032 49.184 122.118 49.2693 122.118 49.44L122.182 56.672C122.182 56.8427 122.096 56.928 121.926 56.928H108.742V68.128H121.926C122.096 68.128 122.182 68.2347 122.182 68.448V75.744C122.182 75.9147 122.096 76 121.926 76H101.254ZM128.129 76C127.958 76 127.873 75.8933 127.873 75.68L127.937 31.712C127.937 31.5413 128.022 31.456 128.193 31.456H148.737C148.907 31.456 148.993 31.5627 148.993 31.776V38.944C148.993 39.1147 148.907 39.2 148.737 39.2H135.617V49.184H148.737C148.907 49.184 148.993 49.2693 148.993 49.44L149.057 56.672C149.057 56.8427 148.971 56.928 148.801 56.928H135.617V68.128H148.801C148.971 68.128 149.057 68.2347 149.057 68.448V75.744C149.057 75.9147 148.971 76 148.801 76H128.129Z" fill="black"/>
<path d="M274.512 134C274.384 134 274.32 133.915 274.32 133.744L274.384 115.568L265.808 89.712C265.765 89.5413 265.829 89.456 266 89.456H273.104C273.317 89.456 273.445 89.5413 273.488 89.712L278.224 106.928L283.024 89.712C283.067 89.5413 283.173 89.456 283.344 89.456H290.512C290.683 89.456 290.747 89.5413 290.704 89.712L282.064 115.312L282.128 133.744C282.128 133.915 282.043 134 281.872 134H274.512ZM303.963 134.64C301.659 134.64 299.547 134.064 297.627 132.912C295.749 131.717 294.235 130.16 293.083 128.24C291.931 126.277 291.355 124.123 291.355 121.776L291.419 101.488C291.419 99.1413 291.973 97.008 293.083 95.088C294.235 93.168 295.771 91.632 297.691 90.48C299.611 89.328 301.701 88.752 303.963 88.752C306.267 88.752 308.357 89.328 310.235 90.48C312.112 91.632 313.605 93.168 314.715 95.088C315.867 97.008 316.443 99.1413 316.443 101.488L316.507 121.776C316.507 124.123 315.931 126.277 314.779 128.24C313.669 130.16 312.155 131.717 310.235 132.912C308.357 134.064 306.267 134.64 303.963 134.64ZM303.963 126.896C305.243 126.896 306.352 126.384 307.291 125.36C308.272 124.293 308.763 123.099 308.763 121.776L308.699 101.488C308.699 100.08 308.251 98.8853 307.355 97.904C306.459 96.9227 305.328 96.432 303.963 96.432C302.64 96.432 301.509 96.9227 300.571 97.904C299.632 98.8427 299.163 100.037 299.163 101.488V121.776C299.163 123.184 299.632 124.4 300.571 125.424C301.509 126.405 302.64 126.896 303.963 126.896ZM333.524 134.64C331.262 134.64 329.172 134.064 327.252 132.912C325.332 131.717 323.796 130.139 322.644 128.176C321.534 126.213 320.98 124.059 320.98 121.712L321.108 89.712C321.108 89.5413 321.193 89.456 321.364 89.456H328.532C328.702 89.456 328.788 89.5413 328.788 89.712V121.712C328.788 123.163 329.236 124.4 330.132 125.424C331.07 126.405 332.201 126.896 333.524 126.896C334.889 126.896 336.02 126.405 336.916 125.424C337.854 124.4 338.324 123.163 338.324 121.712V89.712C338.324 89.5413 338.409 89.456 338.58 89.456H345.748C345.918 89.456 346.004 89.5413 346.004 89.712L346.132 121.712C346.132 124.101 345.556 126.277 344.404 128.24C343.294 130.203 341.78 131.76 339.86 132.912C337.982 134.064 335.87 134.64 333.524 134.64ZM351.761 134C351.42 134 351.249 133.851 351.249 133.552L351.185 89.968C351.185 89.6267 351.356 89.456 351.697 89.456H357.457L368.273 114.672L367.953 89.968C367.953 89.6267 368.145 89.456 368.529 89.456H374.865C375.121 89.456 375.249 89.6267 375.249 89.968L375.313 133.616C375.313 133.872 375.206 134 374.993 134H369.361L358.289 110.448L358.737 133.488C358.737 133.829 358.545 134 358.161 134H351.761ZM392.585 134.64C390.281 134.64 388.19 134.064 386.312 132.912C384.435 131.76 382.921 130.224 381.769 128.304C380.659 126.341 380.105 124.165 380.105 121.776V101.488C380.105 99.184 380.659 97.072 381.769 95.152C382.921 93.1893 384.435 91.632 386.312 90.48C388.233 89.328 390.323 88.752 392.585 88.752C394.931 88.752 397.043 89.328 398.921 90.48C400.841 91.5893 402.355 93.104 403.465 95.024C404.574 96.944 405.129 99.0987 405.129 101.488V104.432C405.129 104.603 405.022 104.688 404.809 104.688H397.641C397.47 104.688 397.385 104.603 397.385 104.432V102C397.385 100.379 396.915 99.0347 395.977 97.968C395.081 96.9013 393.95 96.368 392.585 96.368C391.347 96.368 390.238 96.88 389.257 97.904C388.318 98.928 387.849 100.123 387.849 101.488V121.776C387.849 123.184 388.318 124.4 389.257 125.424C390.195 126.405 391.305 126.896 392.585 126.896C393.95 126.896 395.081 126.405 395.977 125.424C396.915 124.443 397.385 123.227 397.385 121.776V118.64H392.905C392.691 118.64 392.585 118.533 392.585 118.32V111.152C392.585 110.939 392.691 110.832 392.905 110.832H404.873C405.043 110.832 405.129 110.939 405.129 111.152V121.776C405.129 124.165 404.553 126.341 403.401 128.304C402.291 130.224 400.798 131.76 398.921 132.912C397.043 134.064 394.931 134.64 392.585 134.64Z" fill="black"/>
</svg>
